# Blender v2.82 (sub 7) OBJ File: ''
# www.blender.org
mtllib snow_floor.mtl
o Cube.001
v -56.476166 -4.965368 56.476166
v -56.476166 -4.965350 -56.476166
v 56.476166 -4.965350 -56.476166
v 56.476166 -4.965368 56.476166
v -56.476166 0.018802 -56.476166
v 56.476166 0.018802 -56.476166
v 56.476166 0.018784 56.476166
v -56.476166 0.018784 56.476166
vt 2.306233 -0.703327
vt 2.306233 2.038106
vt 5.047666 2.038106
vt 5.047666 -0.703327
vt -0.435200 2.038106
vt -0.435200 4.779539
vt 2.306233 4.779539
vt -0.435200 -6.186193
vt -0.435200 -3.444760
vt 2.306233 -3.444760
vt 2.306233 -6.186193
vt -3.176633 -0.703327
vt -3.176633 2.038106
vt -0.435200 -0.703327
vn 0.0000 -1.0000 -0.0000
vn 0.0000 0.0000 -1.0000
vn 1.0000 0.0000 0.0000
vn 0.0000 1.0000 0.0000
vn -1.0000 0.0000 0.0000
vn 0.0000 0.0000 1.0000
usemtl Material.001
s 1
f 1/1/1 2/2/1 3/3/1 4/4/1
f 5/5/2 6/6/2 3/7/2 2/2/2
f 6/8/3 7/9/3 4/10/3 3/11/3
f 7/12/4 6/13/4 5/5/4 8/14/4
f 8/14/5 5/5/5 2/2/5 1/1/5
f 7/9/6 8/14/6 1/1/6 4/10/6
